<svg width="22" height="22" viewBox="0 0 22 22" fill="none" xmlns="http://www.w3.org/2000/svg">
<path d="M6.41669 16.5C5.40835 16.5 4.59252 17.325 4.59252 18.3333C4.59252 19.3417 5.40835 20.1667 6.41669 20.1667C7.42502 20.1667 8.25002 19.3417 8.25002 18.3333C8.25002 17.325 7.42502 16.5 6.41669 16.5ZM0.916687 1.83333V3.66666H2.75002L6.05002 10.6242L4.81252 12.87C4.66585 13.1267 4.58335 13.4292 4.58335 13.75C4.58335 14.7583 5.40835 15.5833 6.41669 15.5833H17.4167V13.75H6.80169C6.67335 13.75 6.57252 13.6492 6.57252 13.5208L6.60002 13.4108L7.42502 11.9167H14.2542C14.9417 11.9167 15.5467 11.5408 15.8584 10.9725L19.14 5.02333C19.2134 4.89499 19.25 4.73916 19.25 4.58333C19.25 4.07916 18.8375 3.66666 18.3334 3.66666H4.77585L3.91419 1.83333H0.916687ZM15.5834 16.5C14.575 16.5 13.7592 17.325 13.7592 18.3333C13.7592 19.3417 14.575 20.1667 15.5834 20.1667C16.5917 20.1667 17.4167 19.3417 17.4167 18.3333C17.4167 17.325 16.5917 16.5 15.5834 16.5Z" fill="white"/>
</svg>
